<svg width="7" height="12" viewBox="0 0 7 12" fill="none" xmlns="http://www.w3.org/2000/svg">
<path d="M5.3725 11.25C5.26045 11.2503 5.14975 11.2256 5.04851 11.1776C4.94728 11.1296 4.85809 11.0595 4.7875 10.9725L1.165 6.47246C1.05469 6.33826 0.994385 6.16993 0.994385 5.99621C0.994385 5.82249 1.05469 5.65416 1.165 5.51996L4.915 1.01996C5.0423 0.8668 5.22524 0.770482 5.42356 0.752197C5.62188 0.733912 5.81934 0.795159 5.9725 0.922463C6.12566 1.04977 6.22198 1.2327 6.24027 1.43102C6.25855 1.62934 6.1973 1.8268 6.07 1.97996L2.7175 5.99996L5.9575 10.02C6.04921 10.1301 6.10747 10.2641 6.12538 10.4063C6.14329 10.5484 6.1201 10.6927 6.05856 10.8221C5.99702 10.9515 5.8997 11.0606 5.77812 11.1364C5.65653 11.2122 5.51578 11.2516 5.3725 11.25Z" fill="#161616"/>
</svg>
