<svg width="7" height="12" viewBox="0 0 7 12" fill="none" xmlns="http://www.w3.org/2000/svg">
<path d="M1.5001 11.25C1.32486 11.2503 1.15503 11.1893 1.0201 11.0775C0.944155 11.0145 0.881379 10.9372 0.835365 10.8499C0.789351 10.7626 0.761004 10.6672 0.751947 10.5689C0.74289 10.4707 0.753301 10.3716 0.782585 10.2774C0.811868 10.1832 0.859448 10.0957 0.922599 10.02L4.2826 5.99996L1.0426 1.97246C0.9803 1.89574 0.933776 1.80747 0.905703 1.71271C0.877629 1.61796 0.868558 1.51859 0.879013 1.42032C0.889467 1.32205 0.91924 1.22681 0.96662 1.14008C1.014 1.05336 1.07805 0.976847 1.1551 0.914955C1.2327 0.846678 1.32357 0.795177 1.42202 0.763686C1.52047 0.732194 1.62436 0.721391 1.72718 0.731955C1.83 0.742518 1.92953 0.774221 2.01951 0.825072C2.1095 0.875923 2.188 0.944826 2.2501 1.02746L5.8726 5.52746C5.98291 5.66166 6.04321 5.82999 6.04321 6.00371C6.04321 6.17742 5.98291 6.34576 5.8726 6.47996L2.1226 10.98C2.04736 11.0707 1.95179 11.1425 1.84363 11.1894C1.73547 11.2363 1.61778 11.257 1.5001 11.25Z" fill="#161616"/>
</svg>
