<svg width="12" height="7" viewBox="0 0 12 7" fill="none" xmlns="http://www.w3.org/2000/svg">
<path d="M6.00008 5.99972C5.82485 6.00006 5.65502 5.93903 5.52008 5.82722L1.02008 2.07722C0.866922 1.94991 0.770604 1.76698 0.752319 1.56866C0.734034 1.37034 0.795281 1.17288 0.922585 1.01972C1.04989 0.866556 1.23282 0.770238 1.43114 0.751953C1.62946 0.733668 1.82692 0.794914 1.98008 0.922218L6.00008 4.28222L10.0201 1.04222C10.0968 0.979919 10.1851 0.933395 10.2798 0.905322C10.3746 0.877248 10.4739 0.868177 10.5722 0.878632C10.6705 0.889086 10.7657 0.918859 10.8525 0.966239C10.9392 1.01362 11.0157 1.07767 11.0776 1.15472C11.1463 1.23183 11.1983 1.3223 11.2304 1.42046C11.2625 1.51861 11.274 1.62234 11.2641 1.72514C11.2542 1.82794 11.2233 1.92759 11.1731 2.01786C11.1229 2.10812 11.0547 2.18706 10.9726 2.24972L6.47258 5.87222C6.33377 5.96635 6.16741 6.01125 6.00008 5.99972V5.99972Z" fill="#161616"/>
</svg>
